<?xml version="1.0" encoding="iso-8859-1"?>
<!-- Generator: Adobe Illustrator 19.0.0, SVG Export Plug-In . SVG Version: 6.00 Build 0)  -->
<svg version="1.1" id="Layer_1" xmlns="http://www.w3.org/2000/svg" xmlns:xlink="http://www.w3.org/1999/xlink" x="0px" y="0px"
	 viewBox="0 0 511.147 511.147" style="enable-background:new 0 0 511.147 511.147;" xml:space="preserve">
<g transform="translate(1 1)">
	<path style="fill:#FFDD09;" d="M311.427,295.107l-20.48,20.48c-8.533,8.533-8.533,22.187,0,30.72l8.533,8.533l145.067-145.067
		l-17.92-17.92l48.64-48.64l11.947,11.947l11.947-11.947c5.12-6.827,5.12-17.92,0-23.893L389.933,11.8
		c-6.827-6.827-17.067-6.827-23.893,0l-11.947,11.947l11.947,11.947l-48.64,48.64l-17.92-17.92L154.413,211.48l8.533,8.533
		c8.533,8.533,22.187,8.533,30.72,0l20.48-20.48C265.347,200.387,308.867,243.907,311.427,295.107"/>
	<g>
		<polygon style="fill:#FD9808;" points="300.333,67.267 300.333,67.267 299.48,66.413 299.48,66.413 		"/>
		<path style="fill:#FD9808;" d="M482.093,103.96c5.12,6.827,5.12,17.067,0,23.893L470.147,139.8L458.2,127.853l-48.64,48.64
			l17.92,17.92L284.973,336.067c0.853,4.267,2.56,7.68,5.973,11.093l8.533,8.533l145.067-145.067l-17.92-17.92l48.64-48.64
			l11.947,11.947l11.947-11.947c5.12-6.827,5.12-17.92,0-23.893L482.093,103.96z"/>
	</g>
	<g>
		<polygon style="fill:#FFFFFF;" points="441.987,208.92 441.987,208.92 442.84,209.773 442.84,209.773 		"/>
		<path style="fill:#FFFFFF;" d="M405.293,27.16c-6.827-5.12-17.067-5.12-23.893,0l-11.947,11.947L381.4,51.053l-48.64,48.64
			l-17.92-17.92L173.187,224.28c-4.267-0.853-7.68-2.56-11.093-5.973l-8.533-8.533L298.627,64.707l17.92,17.92l48.64-48.64
			L353.24,22.04l11.947-11.947c6.827-5.12,17.92-5.12,23.893,0L405.293,27.16z"/>
	</g>
	<path style="fill:#1CD759;" d="M348.973,185.88c0,14.507-11.093,25.6-25.6,25.6s-25.6-11.093-25.6-25.6
		c0-14.507,11.093-25.6,25.6-25.6S348.973,171.373,348.973,185.88"/>
	<path style="fill:#FFDD09;" d="M68.227,442.733c-13.653-13.653-13.653-34.987,0-48.64c13.653-13.653,34.987-13.653,48.64,0
		s13.653,34.987,0,48.64S81.027,455.533,68.227,442.733 M153.56,405.187L301.187,257.56c-10.24-21.333-27.307-38.4-47.787-48.64
		L105.773,356.547c-17.92-7.68-29.013-5.973-40.107-0.853L44.333,334.36L7.64,370.2l21.333,21.333
		C18.733,416.28,23,446.147,43.48,466.627c20.48,20.48,50.347,24.747,75.093,14.507l21.333,20.48l35.84-34.987l-21.333-21.333
		C159.533,434.2,161.24,422.253,153.56,405.187"/>
	<path d="M299.48,364.227L299.48,364.227c-2.56,0-4.267-0.853-5.973-2.56l-8.533-8.533c-11.947-11.947-11.947-30.72,0-42.667
		l17.92-17.92c-4.267-44.373-40.96-81.067-84.48-84.48l-17.92,17.92c-11.947,11.947-30.72,11.947-42.667,0l-8.533-8.533
		c-3.413-3.413-3.413-8.533,0-11.947L294.36,60.44c0.853-1.707,3.413-2.56,5.12-2.56l0,0c2.56,0,4.267,0.853,5.973,2.56
		L317.4,72.387l35.84-35.84l-5.973-5.973c-1.707-1.707-2.56-3.413-2.56-5.973s0.853-4.267,2.56-5.973L359.213,6.68
		c10.24-10.24,26.453-10.24,35.84,0l108.373,108.373l0.853,0.853c7.68,9.387,7.68,24.747,0,34.133l-0.853,0.853L491.48,162.84
		c-3.413,3.413-8.533,3.413-11.947,0l-5.973-5.973l-35.84,35.84l11.947,11.947c3.413,3.413,3.413,8.533,0,11.947L304.6,361.667
		C304.6,363.373,302.04,364.227,299.48,364.227z M215,190.147C215,190.147,215.853,190.147,215,190.147
		c54.613,2.56,101.547,49.493,104.96,104.96c0,2.56-0.853,5.12-2.56,6.827l-20.48,20.48c-5.12,5.12-5.12,13.653,0,18.773l2.56,2.56
		l133.12-133.12l-11.947-11.947c-3.413-3.413-3.413-8.533,0-11.947l48.64-48.64c3.413-3.413,8.533-3.413,11.947,0l5.973,5.973
		l5.12-5.12c2.56-3.413,2.56-9.387,0-12.8L383.96,17.773c-3.413-3.413-8.533-3.413-11.947,0l-5.973,5.973l5.973,5.973
		c3.413,3.413,3.413,8.533,0,11.947l-48.64,48.64c-1.707,1.707-3.413,2.56-5.973,2.56l0,0c-2.56,0-4.267-0.853-5.973-2.56
		L299.48,78.36L167.213,210.627l2.56,2.56c5.12,5.12,13.653,5.12,18.773,0l20.48-20.48C210.733,191,213.293,190.147,215,190.147z"/>
	<path d="M462.467,189.293c-2.56,0-4.267-0.853-5.973-2.56L324.227,53.613c-3.413-3.413-3.413-8.533,0-11.947
		c3.413-3.413,8.533-3.413,11.947,0l132.267,133.12c3.413,3.413,3.413,8.533,0,11.947
		C466.733,188.44,465.027,189.293,462.467,189.293z"/>
	<path d="M474.413,152.6c-2.56,0-4.267-0.853-5.973-2.56L360.067,41.667c-3.413-3.413-3.413-8.533,0-11.947
		c3.413-3.413,8.533-3.413,11.947,0l108.373,108.373c3.413,3.413,3.413,8.533,0,11.947C479.533,151.747,476.973,152.6,474.413,152.6
		z"/>
	<path d="M426.627,201.24c-2.56,0-4.267-0.853-5.973-2.56L311.427,90.307c-3.413-3.413-3.413-8.533,0-11.947
		c3.413-3.413,8.533-3.413,11.947,0l108.373,108.373c3.413,3.413,3.413,8.533,0,11.947
		C430.893,200.387,428.333,201.24,426.627,201.24z"/>
	<path d="M170.627,348.867c-2.56,0-4.267-0.853-5.973-2.56c-3.413-3.413-3.413-8.533,0-11.947l81.067-81.067
		c3.413-3.413,8.533-3.413,11.947,0c3.413,3.413,3.413,8.533,0,11.947L176.6,346.307
		C174.893,348.013,172.333,348.867,170.627,348.867z"/>
	<path d="M140.76,510.147c-1.707,0-4.267-0.853-5.973-2.56l-17.92-17.067c-27.307,9.387-58.027,2.56-79.36-18.773
		c-20.48-20.48-28.16-51.2-18.773-78.507l-17.92-17.92c-0.853-0.853-1.707-2.56-1.707-5.12s0.853-4.267,2.56-5.973l35.84-35.84
		c3.413-3.413,8.533-3.413,11.947,0l17.92,17.067c11.093-3.413,23.04-3.413,35.84,0.853l144.213-143.36
		c2.56-2.56,6.827-3.413,9.387-1.707c22.187,11.093,40.96,29.867,52.053,52.053c1.707,3.413,0.853,6.827-1.707,9.387L163.8,406.893
		c4.267,12.8,5.12,23.893,0.853,35.84l17.92,17.92c1.707,1.707,2.56,3.413,2.56,5.973s-0.853,4.267-2.56,5.973l-35.84,34.987
		C145.027,509.293,142.467,510.147,140.76,510.147z M118.573,472.6c1.707,0,4.267,0.853,5.973,2.56l16.213,14.507l23.893-23.04
		l-15.36-15.36c-2.56-2.56-3.413-5.973-1.707-9.387c3.413-7.68,5.12-17.067-0.853-33.28c-1.707-3.413-0.853-6.827,1.707-9.387
		l143.36-143.36c-8.533-15.36-21.333-28.16-35.84-36.693L111.747,362.52c-2.56,2.56-5.973,3.413-9.387,1.707
		c-16.213-6.827-25.6-4.267-33.28-0.853c-3.413,1.707-6.827,0.853-9.387-1.707l-15.36-15.36L20.44,370.2l15.36,15.36
		c2.56,2.56,3.413,5.973,1.707,9.387c-9.387,22.187-4.267,48.64,12.8,65.707c17.067,17.067,42.667,22.187,65.707,12.8
		C116.867,472.6,117.72,472.6,118.573,472.6z M92.12,461.507c-11.093,0-22.187-4.267-29.867-12.8l0,0l0,0l0,0
		c-7.68-7.68-12.8-18.773-12.8-29.867c0-11.093,4.267-22.187,12.8-29.867c16.213-16.213,43.52-16.213,60.587,0
		c7.68,7.68,12.8,18.773,12.8,29.867c0,11.093-4.267,22.187-12.8,29.867C114.307,456.387,103.213,461.507,92.12,461.507z
		 M92.12,393.24c-6.827,0-12.8,2.56-17.92,7.68c-5.12,5.12-7.68,11.093-7.68,17.92s2.56,13.653,7.68,17.92l0,0
		c9.387,9.387,26.453,9.387,35.84,0c5.12-5.12,7.68-11.093,7.68-17.92s-2.56-13.653-7.68-17.92
		C104.92,394.947,98.947,393.24,92.12,393.24z"/>
	<path d="M323.373,220.013c-18.773,0-34.133-15.36-34.133-34.133s15.36-34.133,34.133-34.133s34.133,15.36,34.133,34.133
		S342.147,220.013,323.373,220.013z M323.373,168.813c-9.387,0-17.067,7.68-17.067,17.067s7.68,17.067,17.067,17.067
		s17.067-7.68,17.067-17.067S332.76,168.813,323.373,168.813z"/>
</g>
<g>
</g>
<g>
</g>
<g>
</g>
<g>
</g>
<g>
</g>
<g>
</g>
<g>
</g>
<g>
</g>
<g>
</g>
<g>
</g>
<g>
</g>
<g>
</g>
<g>
</g>
<g>
</g>
<g>
</g>
</svg>
